<svg id="Layer_1" data-name="Layer 1" xmlns="http://www.w3.org/2000/svg" viewBox="0 0 128 128"><defs><style>.cls-1,.cls-2{fill:#ff3131;}.cls-1{fill-rule:evenodd;}</style></defs><g id="Folder_1" data-name="Folder 1"><path id="Layer_1-2" data-name="Layer 1" d="M0,0H128V128H0Z"/><path id="Layer" class="cls-1" d="M64.08,18.94c.43.46,8,13.11,8,13.39a3.76,3.76,0,0,1-.69,1.21c-1.69,2.22-2.9,8.06-2.26,11s2.13,4.56,4.54,4.56a4.31,4.31,0,0,0,3.89-2.3c2.28-3.89,2.07-11.06-.46-14.49-.23-.34.1-1.08,1.79-3.92a32.18,32.18,0,0,1,2.25-3.51,92,92,0,0,1,5.56,9.4c0,.15-1.39,3.63-3,7.73s-3,7.55-3,7.68.54.15,1.36.05c1.31-.2,1.38-.18,2.15.77.64.77,1,1,1.69,1,1.25,0,1.84-.31,2.23-1.28a2.63,2.63,0,0,0-.64-2.87l-.64-.77.92-3.84c1.23-5,1.2-4.91,1.46-3.2A11,11,0,0,0,92,45.16,5.24,5.24,0,0,1,93,46.28a3,3,0,0,1-.18.41,2.5,2.5,0,0,1-.23.39l-.2.38c-.09.14-.17.27-.26.39-.51.74-1.59,2.35-2.43,3.66A12.4,12.4,0,0,1,88,53.86c-.1,0-1.61-.18-3.36-.41a20,20,0,0,0-3.43-.3c-.41.12,4.15,2.91,6.84,4.14,2.51,1.15,5.58,2.9,5.4,3.07A6.34,6.34,0,0,1,91.8,60a84.15,84.15,0,0,0-12.59-2.69c-3.31-.46-5.89-.59-13.42-.69-8.73-.13-9.65-.08-15.38.56-6.1.69-12.75,1.92-15.08,2.82-2.56,1-1.13,0,2.92-2,4.86-2.4,8.8-4.66,8.34-4.84a27.08,27.08,0,0,0-3.53.36c-2.33.31-3.3.34-3.56.13s-4.63-7-4.63-7.24A7,7,0,0,1,36.07,45a10.6,10.6,0,0,0,1-1.2,9.39,9.39,0,0,0,.77-1.31A9,9,0,0,0,38.43,41a9.07,9.07,0,0,0,.33-1.48c.08-.77.18-1.33.25-1.28s.54,1.94,1.16,4.19l1,4.1-.61.67a2.76,2.76,0,0,0-.67,2.94A2,2,0,0,0,42,51.46c.81,0,2.12-1,2.12-1.62,0-.23.46-.28,1.59-.15.94.1,1.61.08,1.61,0l-.15-.46-.16-.46c-.07-.14-.13-.28-.2-.44a2.77,2.77,0,0,0-.18-.43c-1.59-3.54-5.43-13.19-5.43-13.57a14.62,14.62,0,0,1,1.54-3c.87-1.41,2.07-3.48,2.69-4.51a8.15,8.15,0,0,1,1.3-1.92A32.24,32.24,0,0,1,49,28.39l2.08,3.48-.69.95c-1.18,1.79-1.62,3.61-1.59,6.94,0,4.09.69,6.42,2.38,8.14,1.2,1.23,1.59,1.33,4,1.18,1.2-.06,2.74-1.75,3.33-3.67.66-2.15.66-3.53,0-6.65A13.26,13.26,0,0,0,56.09,33c-.51-.53-.49-.59,2.43-5.45,1.64-2.69,3.48-5.76,4.15-6.84s1.3-1.86,1.41-1.74Zm-.16,9.14c-.15,0-.64.49-1,1.1-.62.9-.9,1.92-1.51,5.64-.41,2.5-.77,4.91-.77,5.4S61,41.5,62.13,42.8a7.37,7.37,0,0,0,1.77,1.74,8.6,8.6,0,0,0,1.87-1.74c1-1.23,1.51-2,1.51-2.48s-.36-2.87-.8-5.45c-.66-4-.89-4.84-1.53-5.74A2.92,2.92,0,0,0,63.92,28.08Zm-20,4.07a2.27,2.27,0,0,0,2.38,2.56,2.76,2.76,0,0,0,1.49-.43,2.6,2.6,0,0,0,1-1.2,2.68,2.68,0,0,0-.59-2.92C46.44,28.44,43.9,29.64,43.9,32.15Zm35.15-.33a2.14,2.14,0,0,0,.57,2,1.86,1.86,0,0,0,1.84.84c1.84,0,2.82-1.33,2.43-3.32a2.8,2.8,0,0,0-.13-.41,2.32,2.32,0,0,0-.18-.39l-.25-.36a3,3,0,0,0-.31-.3,2.46,2.46,0,0,0-4,1.89ZM65.59,46.44l-.28-.28a3.73,3.73,0,0,0-.31-.28l-.31-.26-.77-.51L62.85,46c-1,.85-1.1,1.1-1.67,3.51-.3,1.43-.61,2.71-.64,2.84,0,.31,2.82,2.28,3.36,2.28s3.4-1.87,3.4-2.3a28.52,28.52,0,0,0-1.46-5.58ZM50,48.46a1.92,1.92,0,0,0-.31-.18l-.33-.15L49,48c-.13,0-.54.44-.85,1-.56.87-.64,1.39-.64,3.69v2.61l1.67.51,1.69.51L52,55.14a4.32,4.32,0,0,0,1.18-1.61,9.46,9.46,0,0,0-1-2.36,5.64,5.64,0,0,0-2-2.5Zm27.78.13c-.92.56-3,4-3,4.91a4.28,4.28,0,0,0,1.17,1.64l1.18,1.15,1.41-.43c2.25-.67,2.2-.59,2-3.33a7.69,7.69,0,0,0-.77-3.48C79.05,47.87,78.92,47.85,77.75,48.59Z"/><path id="Layer-2" data-name="Layer" class="cls-2" d="M63.31,30.64A83.6,83.6,0,0,0,61.7,40c0,.74,1.92,3.09,2.33,2.92a10.2,10.2,0,0,0,1.25-1.23l1-1.18-.74-4.66C64.67,30.28,64.05,28.85,63.31,30.64Z"/><path id="Layer-3" data-name="Layer" class="cls-2" d="M45.18,30.72c-.94,1-.89,1.89.21,2.84.82.74,1.15.77,2.07,0a2.09,2.09,0,0,0-.87-3.56C46.16,29.93,45.8,30.08,45.18,30.72Z"/><path id="Layer-4" data-name="Layer" class="cls-2" d="M80.49,30.49a1.79,1.79,0,0,0-.57.69,2.17,2.17,0,0,0-.2.87,2,2,0,0,0,.18.87,1.64,1.64,0,0,0,.56.69,2.26,2.26,0,0,0,1,.57,2.28,2.28,0,0,0,1-.57,2.08,2.08,0,0,0-.79-3.53A1.37,1.37,0,0,0,80.49,30.49Z"/><path id="Layer-5" data-name="Layer" class="cls-2" d="M63.21,47.13a17.93,17.93,0,0,0-1.51,4.71,2.71,2.71,0,0,0,1,.9c1.1.69,1.71.64,2.81-.26l.75-.61-.67-2.26c-.56-2-1.15-2.94-1.74-2.94l-.18.1a.44.44,0,0,0-.15.1l-.16.11A.79.79,0,0,0,63.21,47.13Z"/><path id="Layer-6" data-name="Layer" class="cls-2" d="M48.72,49.77a11.59,11.59,0,0,0-.36,4.53,3.92,3.92,0,0,0,2,.87c.17,0,.64-.41,1-.92l.75-1-.82-1.56c-.69-1.41-1.61-2.41-2.18-2.41C49.05,49.33,48.87,49.54,48.72,49.77Z"/><path id="Layer-7" data-name="Layer" class="cls-2" d="M78,49.51a7.93,7.93,0,0,0-1.28,2c-1,2-1,2.28.1,3.23.47.43.7.46,1.62.2l1.1-.31V52.48C79.49,49.72,79.16,49,78,49.51Z"/><path id="Layer-8" data-name="Layer" class="cls-2" d="M52.74,38a1.94,1.94,0,0,0-.52.51,2,2,0,0,0-.23.67A2.28,2.28,0,0,0,52,40a1.63,1.63,0,0,0,.36.64,1.67,1.67,0,0,1,.18.28c.07.11.12.21.18.31l.1.31c0,.12.06.23.08.33a7.3,7.3,0,0,1-1.82,2.84c-.54.36-.31,1.15.74,2.18,2,2.07,4.28,1.51,5.5-1.38l.41-1-1.48-1.3c-1.41-1.21-1.82-2.08-1.23-2.44s.31-2-.26-2.53A1.4,1.4,0,0,0,52.74,38Z"/><path id="Layer-9" data-name="Layer" class="cls-2" d="M73,38.3c-.8.77-.82,1.25-.21,2.28s.36,1.33-1.28,2.61c-1.38,1-1.51,1.3-.9,2.48,1.44,2.87,4,3.28,5.82.95.87-1.18.87-1.41-.16-2.56a4.23,4.23,0,0,0-.33-.41c-.1-.14-.21-.28-.31-.44a4.55,4.55,0,0,1-.28-.43c-.08-.16-.16-.32-.23-.49-.33-.74-.31-.87.31-1.59a1.73,1.73,0,0,0-.23-2.63A1.44,1.44,0,0,0,73,38.3Z"/><path id="Layer-10" data-name="Layer" class="cls-2" d="M41,48a1.3,1.3,0,0,0-.18.23.87.87,0,0,0-.15.26,1.2,1.2,0,0,0-.13.28c0,.1,0,.19,0,.28A2,2,0,0,0,42,50.66a1.63,1.63,0,0,0,1.39-1.43c0-.49-1.16-1.77-1.59-1.77l-.23.1-.21.11a1.15,1.15,0,0,0-.2.15A.77.77,0,0,0,41,48Z"/><path id="Layer-11" data-name="Layer" class="cls-2" d="M85.48,47.8l-.59.3a.49.49,0,0,1-.08.18.78.78,0,0,1,0,.18l-.05.21a.47.47,0,0,0,0,.17,1.55,1.55,0,0,0,1.46,1.8,1.5,1.5,0,0,0,1.1-2C86.86,47.8,86.14,47.44,85.48,47.8Z"/><path id="Layer-12" data-name="Layer" class="cls-2" d="M37.25,63a55,55,0,0,0,7.32,2.87q1.2.36,2.46.69c.82.22,1.64.43,2.48.61s1.67.37,2.51.54l2.51.46a94.15,94.15,0,0,0,19,0c1.27-.22,2.52-.47,3.77-.74s2.48-.58,3.71-.92,2.45-.72,3.66-1.13,2.41-.84,3.61-1.3c3.51-1.44,3.43-1.46-1.74-.26-3,.72-10.73,1.87-11,1.64s-.15-.23,2-1.21a7.16,7.16,0,0,0,1.82-1,19.15,19.15,0,0,0-2.58.59c-7.53,2-19,1.94-26.22-.08a24.82,24.82,0,0,0-2.74-.67,26.24,26.24,0,0,0,2.46,1.23c1.33.64,2.25,1.15,2,1.2-1.16.21-10.55-1.38-14.47-2.5-.33-.08-.61-.11-.61,0Z"/><path id="Layer-13" data-name="Layer" class="cls-2" d="M37.66,79.92c-2.18.34-2.79,1.49-2.79,5.4,0,2.13.66,3.87,1.61,4.41.72.38,4.43.41,4.81,0l.11-.2.05-.21a2,2,0,0,0,0-.23,1.64,1.64,0,0,0,0-.23c-.08-.56-.18-.59-1.8-.53-2.5.07-2.81-.29-2.76-3.51,0-2.18.1-2.43.64-2.92s1-.49,2.25-.38c1.56.07,1.59,0,1.67-.64s0-.75-.54-.87a6.91,6.91,0,0,0-.79-.16c-.28,0-.55-.06-.82-.07s-.55,0-.82,0a7.35,7.35,0,0,0-.82.1Z"/><path id="Layer-14" data-name="Layer" class="cls-1" d="M49.56,80.51c1.08.69,1.59,2.49,1.46,5-.2,3.35-1.18,4.5-3.89,4.5s-3.94-1.13-4.22-4.17c-.31-3.28.76-5.56,2.76-5.89L47,79.77A4.72,4.72,0,0,1,49.56,80.51ZM48.38,82a2.38,2.38,0,0,0-.69-.41,2,2,0,0,0-.77-.1,2,2,0,0,0-.76.2,1.85,1.85,0,0,0-.64.49c-.46.59-.57,1.1-.57,2.89,0,2.77.36,3.33,2,3.33a2,2,0,0,0,1.54-.46C49.41,86.86,49.33,82.94,48.38,82Z"/><path id="Layer-15" data-name="Layer" class="cls-1" d="M82.53,81.87a6.23,6.23,0,0,1,.52,3.2c0,3.69-1.13,5-4.2,5-2.77,0-3.92-1.54-3.92-5.09,0-3.18.79-4.56,2.87-5.07A4,4,0,0,1,82.53,81.87Zm-4.89.1c-.64.67-.92,2-.76,3.89s.71,2.51,2.1,2.51c1.74,0,2.25-.92,2-3.94A4.07,4.07,0,0,0,80.46,82,2.19,2.19,0,0,0,77.64,82Z"/><path id="Layer-16" data-name="Layer" class="cls-2" d="M28.06,80.15a2.57,2.57,0,0,0-1.44,2.59c0,1.41.82,2.25,2.74,2.84,1.62.49,2.05.82,2.05,1.61,0,1-.61,1.23-2.46,1.18-2.3-.08-2.33-.08-2.33.64s.54,1,3.08,1c1.76,0,2-.1,2.74-.76a2.14,2.14,0,0,0,.81-2.08,4.53,4.53,0,0,0-.3-1.76,7.83,7.83,0,0,0-2.18-1.21c-2.05-.82-2.58-1.35-2.12-2.12.23-.36.69-.44,2.3-.44,1.79,0,2.05,0,2.15-.53a1.12,1.12,0,0,0,0-.24.74.74,0,0,0-.05-.25.71.71,0,0,0-.11-.21,1.53,1.53,0,0,0-.18-.18C32.31,79.82,28.93,79.77,28.06,80.15Z"/><path id="Layer-17" data-name="Layer" class="cls-1" d="M55.42,79.87c2.92,0,4.25.62,4.71,2.08a4.07,4.07,0,0,1-.61,3.63L59,86.3l.59,1.64a16.89,16.89,0,0,1,.56,1.84c0,.15-.46.2-1,.15-1-.1-1-.13-1.51-1.76s-.54-1.64-1.51-1.64h-1L55,88.17l-.08,1.66-1,.1-1,.08V85.12a35.38,35.38,0,0,1,.2-5A6.89,6.89,0,0,1,55.42,79.87Zm2.56,2a5.43,5.43,0,0,0-2.74-.23,4.55,4.55,0,0,0-.2,1.74v1.54h1.33c1.13,0,1.38-.11,1.77-.67S58.44,82.15,58,81.87Z"/><path id="Layer-18" data-name="Layer" class="cls-1" d="M64.59,79.87c3.66,0,5,1.18,4.76,4-.23,2-1.15,2.87-3.43,3.1l-1.72.2v2.64l-1,.1-1,.08V85.12a38.24,38.24,0,0,1,.18-5.07A7.53,7.53,0,0,1,64.59,79.87Zm-.23,1.77c0,.13,0,.92-.1,1.76-.08,1,0,1.62.28,1.82a2.65,2.65,0,0,0,2.66-.48,2.69,2.69,0,0,0,0-2.54C66.84,81.74,64.36,81.25,64.36,81.64Z"/><path id="Layer-19" data-name="Layer" class="cls-2" d="M71.17,80A38.91,38.91,0,0,0,71,85.12V90l1-.1,1-.08V80l-.82-.08A1.66,1.66,0,0,0,71.17,80Z"/><path id="Layer-20" data-name="Layer" class="cls-2" d="M85.07,84.92V90h1.87V85.81c0-2.61.1-4.07.23-3.94a30,30,0,0,1,1.33,3.94c.59,2,1.15,3.76,1.23,3.89a3.79,3.79,0,0,0,1.74.26H93l0-5-.08-5-.84-.08-.87-.07v4a17.24,17.24,0,0,1-.26,4.13A17.22,17.22,0,0,1,89.52,84l-1.15-4-1.66-.08-1.64-.07Z"/><path id="Layer-21" data-name="Layer" class="cls-2" d="M96.33,80.15a2.58,2.58,0,0,0-1.43,2.59c0,1.46.69,2.2,2.69,2.84,1.74.59,2.1.82,2.1,1.61,0,1-.62,1.23-2.72,1.13C95,88.24,95,88.24,95,89s0,.72.67.84c2.5.57,5,0,5.65-1.12a4.67,4.67,0,0,0,0-3.3,7.43,7.43,0,0,0-2.17-1.21c-2-.82-2.59-1.38-2.13-2.12.23-.33.69-.44,2.23-.46,1.77,0,2-.08,2.15-.59s.1-.64-.28-.85A11.22,11.22,0,0,0,96.33,80.15Z"/><path id="Layer-22" data-name="Layer" class="cls-2" d="M41.16,99.17a33.28,33.28,0,0,0-.2,5.07v4.87h5.61l-.08-.87c-.08-.87-.1-.87-1.54-.92l-1.79-.06c-.23,0-.33-1.1-.38-4.09l-.08-4L42,99.05A1.38,1.38,0,0,0,41.16,99.17Z"/><path id="Layer-23" data-name="Layer" class="cls-2" d="M48.08,99.2a30.39,30.39,0,0,0-.21,5v4.89l3.28-.07,3.22-.08v-1.59l-2.12,0H50.12L50,106.29a3,3,0,0,1,0-1.25,4.66,4.66,0,0,1,1.84-.18h1.69v-1.59h-3.4l-.13-1A2.3,2.3,0,0,1,50,101a7.45,7.45,0,0,1,2.28-.26l2.07,0V99.15l-3.07-.08a14.7,14.7,0,0,0-3.25.13Z"/><path id="Layer-24" data-name="Layer" class="cls-2" d="M57.73,99.35c-1.31.67-1.72,1.59-1.82,4.18a8.73,8.73,0,0,0,.33,3.61c.64,1.66,1.54,2.1,4.33,2.07a7.09,7.09,0,0,0,2.48-.31,7.83,7.83,0,0,0,.18-2.61l-.07-2.38H61.82c-1.07,0-1.33.08-1.4.49a1.27,1.27,0,0,0,0,.28.94.94,0,0,0,.1.28,1.26,1.26,0,0,0,.13.23.6.6,0,0,0,.21.21l.23.3a3,3,0,0,1,.15.31,2.52,2.52,0,0,1,.13.33,2.17,2.17,0,0,1,0,.36c0,.77,0,.79-1.28.79-.89,0-1.43-.12-1.69-.46-.94-1.07-.87-5,.11-6,.46-.44.82-.51,2.56-.41,2,.08,2,.08,2-.59a.75.75,0,0,0-.67-.82A11,11,0,0,0,57.73,99.35Z"/><path id="Layer-25" data-name="Layer" class="cls-2" d="M65.59,99.2c-.08.1-.16,2.36-.21,5l-.1,4.79,1,.08,1,.07,0-5-.08-5-.72-.08A1,1,0,0,0,65.59,99.2Z"/><path id="Layer-26" data-name="Layer" class="cls-1" d="M75.34,99.4c1.46.7,1.9,1.77,1.9,4.66s-.31,3.72-1.54,4.61a3.43,3.43,0,0,1-2.46.54c-2.74,0-3.81-1.15-4.07-4.25-.2-2.87.72-5.2,2.36-5.76A7.17,7.17,0,0,1,75.34,99.4Zm-1.25,1.31a1.23,1.23,0,0,1-.29-.08l-.28,0h-.28c-1.53,0-2,.82-2,3.63,0,2.64.36,3.25,1.87,3.25s2.1-.61,2.1-3.2c0-2-.26-3-.9-3.48Z"/><path id="Layer-27" data-name="Layer" class="cls-2" d="M79.33,99.35c0,.18-.07,2.41,0,5l.08,4.66h1.87l.13-4a16.79,16.79,0,0,1,.3-3.72c.07.16.13.31.18.46l.16.47a3.45,3.45,0,0,1,.12.46,2.42,2.42,0,0,1,.13.46c.23.89.72,2.56,1.08,3.73L84,109l1.61.08,1.61.07V99l-.84.08-.87.1-.13,4.09c-.18,4.72-.2,4.72-1.61-.25-1.15-4.12-1-4-2.82-4-.92,0-1.48.13-1.59.33Z"/></g></svg>