<svg id="Layer_1" data-name="Layer 1" xmlns="http://www.w3.org/2000/svg" viewBox="0 0 180 180"><defs><style>.cls-1,.cls-2{fill:#ff3131;}.cls-1{fill-rule:evenodd;}</style></defs><g id="Folder_1" data-name="Folder 1"><path id="Layer_1-2" data-name="Layer 1" d="M0,0H180V180H0Z"/><path id="Layer" class="cls-1" d="M90.11,26.64c.61.65,11.19,18.43,11.19,18.83a5.08,5.08,0,0,1-1,1.69C98,50.29,96.26,58.5,97.16,62.64c.94,4.32,3,6.41,6.38,6.41A6,6,0,0,0,109,65.81c3.2-5.47,2.91-15.55-.65-20.38-.32-.47.14-1.51,2.52-5.51A46.73,46.73,0,0,1,114.05,35c.36,0,7.81,12.64,7.81,13.21,0,.22-1.94,5.12-4.28,10.88s-4.29,10.62-4.29,10.8.76.21,1.91.07c1.84-.29,1.94-.25,3,1.08.9,1.08,1.34,1.33,2.38,1.33,1.76,0,2.59-.43,3.13-1.8a3.67,3.67,0,0,0-.9-4l-.9-1.08,1.3-5.4c1.73-7,1.69-6.91,2-4.5a15.33,15.33,0,0,0,4,8,6.84,6.84,0,0,1,1.51,1.59,4.7,4.7,0,0,1-.25.57,2.85,2.85,0,0,1-.32.54c-.1.2-.19.38-.29.54a6.32,6.32,0,0,1-.36.54c-.72,1-2.23,3.32-3.42,5.15a16.91,16.91,0,0,1-2.38,3.31c-.14,0-2.26-.25-4.71-.57a28.11,28.11,0,0,0-4.83-.43c-.57.18,5.84,4.1,9.62,5.83,3.52,1.62,7.84,4.07,7.59,4.32a9.74,9.74,0,0,1-2.37-.58,119.08,119.08,0,0,0-17.72-3.78c-4.64-.65-8.28-.83-18.86-1-12.28-.18-13.57-.11-21.64.79-8.56,1-17.92,2.7-21.2,4-3.6,1.37-1.58,0,4.1-2.84,6.84-3.39,12.39-6.55,11.74-6.81a37,37,0,0,0-5,.51c-3.27.43-4.64.47-5,.18S49,65.52,49,65.16a10.65,10.65,0,0,1,1.69-1.94,15.32,15.32,0,0,0,1.41-1.7,11.89,11.89,0,0,0,1.08-1.83,13.19,13.19,0,0,0,.83-2,12,12,0,0,0,.46-2.09c.11-1.08.26-1.87.36-1.8s.76,2.74,1.62,5.91l1.44,5.76-.86.93a3.89,3.89,0,0,0-.94,4.14,2.79,2.79,0,0,0,3,1.84c1.15,0,3-1.4,3-2.27,0-.32.65-.39,2.23-.21,1.33.14,2.27.1,2.27-.08l-.22-.64-.21-.65c-.1-.19-.19-.4-.29-.61a5.73,5.73,0,0,0-.25-.62C63.4,62.32,58,48.74,58,48.2A20.07,20.07,0,0,1,60.16,44c1.22-2,2.91-4.9,3.78-6.34A11.78,11.78,0,0,1,65.77,35a43.34,43.34,0,0,1,3.17,4.93l2.92,4.9-1,1.33c-1.65,2.52-2.26,5.08-2.23,9.76,0,5.76,1,9,3.35,11.45,1.69,1.72,2.23,1.87,5.58,1.65,1.69-.07,3.85-2.45,4.68-5.15.94-3,.94-5,0-9.36-.68-3.45-2-6.66-3.38-8.13-.72-.76-.69-.83,3.42-7.67,2.3-3.78,4.89-8.1,5.83-9.61s1.83-2.63,2-2.45Zm-.22,12.85c-.21,0-.9.69-1.44,1.55-.86,1.26-1.26,2.7-2.12,7.92-.58,3.53-1.08,6.91-1.08,7.6,0,.9.5,1.8,2.12,3.63a10.58,10.58,0,0,0,2.49,2.45,12.37,12.37,0,0,0,2.62-2.45c1.48-1.73,2.13-2.77,2.13-3.49s-.51-4-1.12-7.67c-.93-5.58-1.26-6.8-2.16-8.06A4.09,4.09,0,0,0,89.89,39.49ZM61.74,45.22c0,2.26,1.26,3.6,3.35,3.6a3.85,3.85,0,0,0,2.09-.62,3.57,3.57,0,0,0,1.4-1.69,3.72,3.72,0,0,0,.22-2.16,4,4,0,0,0-1-1.94C65.3,40,61.74,41.69,61.74,45.22Zm49.43-.47a3,3,0,0,0,.79,2.88,2.65,2.65,0,0,0,2.59,1.19c2.59,0,4-1.88,3.42-4.68a5.58,5.58,0,0,0-.18-.58,3.32,3.32,0,0,0-.25-.54l-.36-.5a3.53,3.53,0,0,0-.43-.44c-2.27-1.76-5.26-.36-5.62,2.67ZM92.23,65.3l-.39-.39a5.31,5.31,0,0,0-.44-.4L91,64.15l-1.08-.72-1.51,1.26C87,65.88,86.83,66.24,86,69.62c-.43,2-.86,3.82-.9,4-.07.43,4,3.2,4.72,3.2s4.78-2.62,4.78-3.24a40.76,40.76,0,0,0-2-7.84Zm-22,2.85a3.18,3.18,0,0,0-.43-.25l-.47-.22-.47-.18c-.18,0-.75.61-1.18,1.37-.8,1.22-.9,1.94-.9,5.18v3.67l2.34.72,2.37.72,1.66-1.62a6,6,0,0,0,1.65-2.26A13.4,13.4,0,0,0,73.48,72c-1-1.87-1.73-2.91-2.78-3.52Zm39.06.18c-1.29.79-4.25,5.61-4.25,6.91a6.15,6.15,0,0,0,1.66,2.3l1.66,1.62,2-.61c3.16-.93,3.09-.83,2.84-4.68-.18-2.52-.43-3.78-1.08-4.89-1-1.66-1.15-1.7-2.81-.65Z"/><path id="Layer-2" data-name="Layer" class="cls-2" d="M89,43.09a116.12,116.12,0,0,0-2.27,13.14c0,1.05,2.7,4.36,3.28,4.11a14.18,14.18,0,0,0,1.76-1.73L93.24,57l-1-6.55C90.94,42.59,90.07,40.57,89,43.09Z"/><path id="Layer-3" data-name="Layer" class="cls-2" d="M63.54,43.2c-1.33,1.33-1.26,2.66.29,4,1.15,1,1.62,1.08,2.91.07a2.94,2.94,0,0,0-1.22-5C64.91,42.08,64.4,42.3,63.54,43.2Z"/><path id="Layer-4" data-name="Layer" class="cls-2" d="M113.18,42.88a2.53,2.53,0,0,0-.79,1,2.88,2.88,0,0,0-.29,1.22,2.92,2.92,0,0,0,.26,1.23,2.33,2.33,0,0,0,.79,1,3.2,3.2,0,0,0,1.44.79,3.2,3.2,0,0,0,1.44-.79,2.93,2.93,0,0,0-1.12-5,1.94,1.94,0,0,0-1.73.58Z"/><path id="Layer-5" data-name="Layer" class="cls-2" d="M88.88,66.28a25.42,25.42,0,0,0-2.12,6.62,3.82,3.82,0,0,0,1.37,1.26c1.55,1,2.41.9,4-.36l1-.86-.93-3.17c-.8-2.77-1.62-4.14-2.45-4.14a1.86,1.86,0,0,0-.25.14.51.51,0,0,0-.22.15l-.22.14A1.24,1.24,0,0,0,88.88,66.28Z"/><path id="Layer-6" data-name="Layer" class="cls-2" d="M68.51,70c-.47.94-.9,5.8-.51,6.38a5.5,5.5,0,0,0,2.81,1.22c.25,0,.9-.58,1.48-1.3l1-1.33-1.15-2.19c-1-2-2.27-3.39-3.06-3.39C69,69.37,68.72,69.66,68.51,70Z"/><path id="Layer-7" data-name="Layer" class="cls-2" d="M109.62,69.62a11.24,11.24,0,0,0-1.8,2.78c-1.33,2.73-1.33,3.2.14,4.53.65.61,1,.65,2.27.29l1.55-.43v-3c0-3.89-.47-4.86-2.16-4.18Z"/><path id="Layer-8" data-name="Layer" class="cls-2" d="M74.16,53.5a2.47,2.47,0,0,0-.72.72,2.34,2.34,0,0,0-.32.93,3.07,3.07,0,0,0,0,1.05,2.38,2.38,0,0,0,.51.9,2.59,2.59,0,0,1,.25.39c.09.15.18.29.25.43l.14.44a3,3,0,0,1,.11.46,10.25,10.25,0,0,1-2.55,4c-.76.5-.44,1.62,1,3.06,2.81,2.92,6,2.12,7.74-1.94l.58-1.44-2.09-1.84c-2-1.69-2.56-2.92-1.73-3.42.68-.43.43-2.77-.36-3.56A2,2,0,0,0,74.16,53.5Z"/><path id="Layer-9" data-name="Layer" class="cls-2" d="M102.64,53.86c-1.12,1.08-1.16,1.76-.29,3.2s.5,1.87-1.8,3.67c-2,1.44-2.13,1.84-1.26,3.49,2,4,5.61,4.61,8.17,1.34,1.22-1.66,1.22-2-.22-3.6-.14-.2-.3-.39-.46-.58s-.29-.4-.44-.61a6.33,6.33,0,0,1-.39-.61,7.32,7.32,0,0,1-.33-.69c-.46-1-.43-1.22.44-2.23a2.44,2.44,0,0,0-.33-3.71c-1-.86-2-.75-3.09.33Z"/><path id="Layer-10" data-name="Layer" class="cls-2" d="M57.6,67.5a1.54,1.54,0,0,0-.25.32,1.4,1.4,0,0,0-.22.36,2.43,2.43,0,0,0-.18.4c0,.14-.05.28-.07.4A2.76,2.76,0,0,0,59,71.24a2.28,2.28,0,0,0,1.94-2c0-.69-1.62-2.49-2.23-2.49l-.32.15-.29.14a1.46,1.46,0,0,0-.29.22A1.18,1.18,0,0,0,57.6,67.5Z"/><path id="Layer-11" data-name="Layer" class="cls-2" d="M120.2,67.21c-.43.22-.79.4-.82.43a1,1,0,0,1-.11.26c0,.09,0,.18-.07.25l-.08.29a.9.9,0,0,0,0,.25,2.16,2.16,0,0,0,2,2.52c1.12,0,2-1.69,1.55-2.81S121.14,66.71,120.2,67.21Z"/><path id="Layer-12" data-name="Layer" class="cls-2" d="M52.38,88.52c0,.26,7.16,3.1,10.3,4,1.12.33,2.28.66,3.45,1s2.32.6,3.49.86,2.36.52,3.53.76l3.53.65c6,.9,20.84.9,26.71,0,1.78-.32,3.54-.66,5.29-1s3.5-.81,5.22-1.29,3.45-1,5.15-1.59,3.4-1.19,5.08-1.83c4.93-2,4.82-2.06-2.45-.36-4.28,1-15.08,2.62-15.41,2.3s-.21-.32,2.85-1.69a9.88,9.88,0,0,0,2.55-1.41,28.19,28.19,0,0,0-3.63.83c-10.59,2.77-26.72,2.74-36.87-.11a34.72,34.72,0,0,0-3.85-.93,37.39,37.39,0,0,0,3.46,1.73c1.87.9,3.16,1.62,2.8,1.69-1.62.29-14.83-2-20.34-3.53-.46-.11-.86-.14-.86,0Z"/><path id="Layer-13" data-name="Layer" class="cls-2" d="M53,112.39c-3.06.47-3.93,2.09-3.93,7.6,0,3,.94,5.43,2.27,6.19,1,.54,6.23.58,6.77,0l.14-.29.07-.29a1.33,1.33,0,0,0,0-.32,1.15,1.15,0,0,0,0-.33c-.1-.79-.25-.83-2.52-.75-3.52.1-4-.4-3.88-4.94,0-3.06.14-3.42.9-4.1s1.36-.68,3.16-.54c2.2.11,2.24.07,2.34-.9s0-1-.75-1.22a7.93,7.93,0,0,0-1.12-.22c-.38,0-.77-.08-1.15-.11s-.77,0-1.15,0a8.81,8.81,0,0,0-1.15.14Z"/><path id="Layer-14" data-name="Layer" class="cls-1" d="M69.7,113.22c1.51,1,2.23,3.49,2,7.09-.29,4.72-1.66,6.34-5.47,6.34s-5.55-1.59-5.94-5.87c-.44-4.61,1.08-7.81,3.88-8.28l1.8-.32a6.69,6.69,0,0,1,3.68,1Zm-1.66,2a3.49,3.49,0,0,0-1-.57,2.88,2.88,0,0,0-1.08-.15,2.79,2.79,0,0,0-1.08.29,2.68,2.68,0,0,0-.9.68c-.65.83-.79,1.55-.79,4.07,0,3.89.5,4.68,2.77,4.68a2.79,2.79,0,0,0,2.16-.65c1.33-1.47,1.22-7-.11-8.35Z"/><path id="Layer-15" data-name="Layer" class="cls-1" d="M116.06,115.13c.58,1.11.76,2.23.72,4.5,0,5.18-1.58,7.05-5.9,7-3.89,0-5.51-2.16-5.51-7.17,0-4.46,1.12-6.4,4-7.12s5.48.43,6.66,2.77Zm-6.87.14c-.9.94-1.3,2.88-1.08,5.47s1,3.53,3,3.53c2.45,0,3.17-1.29,2.88-5.54-.07-1.87-.32-2.81-.79-3.39A3.07,3.07,0,0,0,109.19,115.27Z"/><path id="Layer-16" data-name="Layer" class="cls-2" d="M39.46,112.72c-1.26.46-2,1.83-2,3.63,0,2,1.15,3.17,3.85,4,2.27.68,2.88,1.15,2.88,2.27,0,1.33-.86,1.72-3.45,1.65-3.24-.11-3.28-.11-3.28.9s.76,1.37,4.32,1.37c2.48,0,2.81-.14,3.85-1.08s1.15-1.37,1.15-2.92a6.18,6.18,0,0,0-.43-2.48,10.64,10.64,0,0,0-3.06-1.69c-2.88-1.15-3.63-1.91-3-3,.33-.5,1-.61,3.24-.61,2.52,0,2.88-.07,3-.76a2,2,0,0,0,0-.32.92.92,0,0,0-.07-.36.77.77,0,0,0-.14-.29,1.18,1.18,0,0,0-.25-.25c-.69-.54-5.44-.61-6.66-.07Z"/><path id="Layer-17" data-name="Layer" class="cls-1" d="M77.94,112.32c4.1,0,6,.86,6.62,2.92a5.73,5.73,0,0,1-.86,5.11l-.79,1,.83,2.3a22.81,22.81,0,0,1,.79,2.59c0,.22-.65.29-1.41.22-1.33-.15-1.36-.18-2.12-2.49s-.76-2.3-2.12-2.3H77.44l-.11,2.3-.11,2.34-1.37.15-1.44.11V119.7a49.3,49.3,0,0,1,.29-7.09A9.81,9.81,0,0,1,77.94,112.32Zm3.6,2.81c-.61-.36-3.56-.65-3.85-.33a6.17,6.17,0,0,0-.29,2.45v2.16h1.87c1.59,0,2-.14,2.49-.93S82.19,115.52,81.54,115.13Z"/><path id="Layer-18" data-name="Layer" class="cls-1" d="M90.83,112.32c5.15,0,7,1.66,6.69,5.65-.32,2.81-1.62,4-4.82,4.36l-2.41.29v3.7l-1.37.15-1.4.11V119.7a52.42,52.42,0,0,1,.25-7.13,10.6,10.6,0,0,1,3.06-.25Zm-.33,2.48c0,.18-.07,1.3-.14,2.49-.11,1.47,0,2.27.4,2.55.68.58,3.16.15,3.74-.68a3.8,3.8,0,0,0,0-3.56c-.54-.65-4-1.34-4-.8Z"/><path id="Layer-19" data-name="Layer" class="cls-2" d="M100.08,112.54a55.38,55.38,0,0,0-.25,7.16v6.88l1.4-.15,1.41-.11V112.5l-1.16-.11a2.38,2.38,0,0,0-1.4.15Z"/><path id="Layer-20" data-name="Layer" class="cls-2" d="M119.63,119.41v7.13h2.63v-5.87c0-3.67.14-5.72.32-5.54a42.64,42.64,0,0,1,1.87,5.54c.83,2.81,1.62,5.29,1.73,5.47a5.43,5.43,0,0,0,2.45.36h2.19l-.07-7-.11-7-1.18-.11-1.23-.11v5.58c0,3.1-.14,5.69-.36,5.8s-1-2.34-2-5.47l-1.62-5.69-2.34-.11-2.3-.11Z"/><path id="Layer-21" data-name="Layer" class="cls-2" d="M135.47,112.72c-1.26.46-2,1.83-2,3.63,0,2.05,1,3.1,3.78,4,2.45.83,3,1.15,3,2.27,0,1.4-.86,1.72-3.81,1.58-2.74-.11-2.74-.11-2.85.9-.1.83.08,1,.94,1.19,3.53.79,7.06,0,8-1.59.54-1,.5-3.88-.08-4.64a10.26,10.26,0,0,0-3.06-1.69c-2.88-1.15-3.63-2-3-3,.32-.47,1-.61,3.13-.65,2.48,0,2.77-.11,3-.83s.15-.9-.39-1.18c-.87-.47-5.48-.47-6.59,0Z"/><path id="Layer-22" data-name="Layer" class="cls-2" d="M57.89,139.46a44.43,44.43,0,0,0-.29,7.13v6.84h7.88l-.1-1.22c-.11-1.23-.15-1.23-2.16-1.3l-2.52-.07c-.33,0-.47-1.55-.54-5.76l-.11-5.69-.94-.11A1.87,1.87,0,0,0,57.89,139.46Z"/><path id="Layer-23" data-name="Layer" class="cls-2" d="M67.61,139.5a43.36,43.36,0,0,0-.29,7.09v6.88l4.61-.11,4.53-.11V151l-3,0h-3l-.22-1.51a4.31,4.31,0,0,1-.07-1.76,6.63,6.63,0,0,1,2.59-.25h2.38v-2.24H70.38l-.18-1.44a3.23,3.23,0,0,1,.14-1.72,10.25,10.25,0,0,1,3.21-.36l2.91,0v-2.23l-4.32-.11a20.78,20.78,0,0,0-4.57.18Z"/><path id="Layer-24" data-name="Layer" class="cls-2" d="M81.18,139.72c-1.84.93-2.41,2.23-2.56,5.86a12.34,12.34,0,0,0,.47,5.08c.9,2.34,2.16,3,6.09,2.92a10.05,10.05,0,0,0,3.49-.44,11.15,11.15,0,0,0,.25-3.67l-.11-3.35H86.94c-1.51,0-1.87.11-2,.69a1.61,1.61,0,0,0,0,.39,1.06,1.06,0,0,0,.14.4,1.4,1.4,0,0,0,.18.32.81.81,0,0,0,.29.29,5.29,5.29,0,0,1,.32.43,3.59,3.59,0,0,1,.22.44,3.14,3.14,0,0,1,.18.46,4.36,4.36,0,0,1,0,.51c0,1.08,0,1.11-1.8,1.11-1.26,0-2-.18-2.37-.64-1.33-1.52-1.23-7,.14-8.39.65-.61,1.15-.72,3.6-.58,2.85.11,2.88.11,2.88-.83a1,1,0,0,0-.93-1.15c-1.59-.47-5.76-.36-6.7.15Z"/><path id="Layer-25" data-name="Layer" class="cls-2" d="M92.23,139.5c-.11.14-.21,3.31-.29,7l-.14,6.73,1.4.11,1.41.11-.07-7-.11-7-1-.11a1.41,1.41,0,0,0-1.19.18Z"/><path id="Layer-26" data-name="Layer" class="cls-1" d="M106,139.79c2,1,2.66,2.48,2.66,6.55,0,3.92-.43,5.22-2.16,6.48-.83.61-1.58.79-3.45.76-3.86,0-5.37-1.62-5.73-6-.29-4,1-7.31,3.31-8.1A10.13,10.13,0,0,1,106,139.79Zm-1.77,1.83a2.22,2.22,0,0,1-.39-.1,1.64,1.64,0,0,0-.4,0H103c-2.16,0-2.78,1.15-2.78,5.11,0,3.71.51,4.57,2.63,4.57,2.34,0,3-.86,3-4.5,0-2.88-.36-4.28-1.26-4.89l-.36-.15Z"/><path id="Layer-27" data-name="Layer" class="cls-2" d="M111.56,139.72c-.07.25-.1,3.38-.07,7l.11,6.55h2.63l.18-5.61c.11-3.1.29-5.4.43-5.22a5.64,5.64,0,0,1,.25.64l.22.65c.07.22.13.43.18.65s.13.43.18.65c.32,1.26,1,3.6,1.51,5.25l.9,3,2.27.11,2.27.11V139.18l-1.19.1-1.23.15-.18,5.76c-.25,6.62-.28,6.62-2.26-.36-1.62-5.8-1.48-5.58-4-5.58-1.3,0-2.09.18-2.24.47Z"/></g></svg>