<svg version="1.2" xmlns="http://www.w3.org/2000/svg" viewBox="0 0 500 500" width="57" height="57">
	<title>logo-16x16-svg</title>
	<style>
		.s0 { fill: #000000 } 
		.s1 { fill: #ff3131 } 
	</style>
	<g id="Folder 1">
		<path id="Layer 1" class="s0" d="m0 0h500v500h-500z"/>
		<path id="Layer" fill-rule="evenodd" class="s1" d="m250.3 74c1.7 1.8 31.1 51.2 31.1 52.3 0 0.7-1.2 2.7-2.7 4.7-6.6 8.7-11.3 31.5-8.8 43 2.6 12 8.3 17.8 17.7 17.8 6.5 0 11.7-3 15.2-9 8.9-15.2 8.1-43.2-1.8-56.6-0.9-1.3 0.4-4.2 7-15.3 4.5-7.6 8.5-13.7 8.8-13.7 1 0 21.7 35.1 21.7 36.7 0 0.6-5.4 14.2-11.9 30.2-6.5 16-11.9 29.5-11.9 30 0 0.5 2.1 0.6 5.3 0.2 5.1-0.8 5.4-0.7 8.4 3 2.5 3 3.7 3.7 6.6 3.7 4.9 0 7.2-1.2 8.7-5 1.5-3.9 0.8-7.3-2.5-11.2l-2.5-3 3.6-15c4.8-19.5 4.7-19.2 5.7-12.5 1.2 7.9 6.4 17.9 11.2 22.1 2.3 2 4.2 4 4.2 4.4q-0.3 0.8-0.7 1.6-0.4 0.8-0.9 1.5-0.4 0.8-0.8 1.5-0.5 0.8-1 1.5c-2 2.9-6.2 9.2-9.5 14.3-3.2 5.2-6.2 9.2-6.6 9.2-0.4 0-6.3-0.7-13.1-1.6-6.7-0.9-12.7-1.5-13.4-1.2-1.6 0.5 16.2 11.4 26.7 16.2 9.8 4.5 21.8 11.3 21.1 12-0.2 0.2-3.1-0.5-6.6-1.6-9.5-3.3-31.4-8-49.2-10.5-12.9-1.8-23-2.3-52.4-2.7-34.1-0.5-37.7-0.3-60.1 2.2-23.8 2.7-49.8 7.5-58.9 11-10 3.8-4.4-0.1 11.4-7.9 19-9.4 34.4-18.2 32.6-18.9-0.7-0.2-6.9 0.4-13.8 1.4-9.1 1.2-12.9 1.3-13.9 0.5-1.4-1.2-18.1-27.3-18.1-28.3 0-0.4 2.1-2.8 4.7-5.4q2.1-2.2 3.9-4.7 1.7-2.4 3-5.1 1.4-2.7 2.3-5.6 0.9-2.8 1.3-5.8c0.3-3 0.7-5.2 1-5 0.2 0.2 2.1 7.6 4.5 16.4l4 16-2.4 2.6c-3.2 3.4-4.1 7.7-2.6 11.5 1.6 3.6 3.8 5.1 8.3 5.1 3.2 0 8.3-3.9 8.3-6.3 0-0.9 1.8-1.1 6.2-0.6 3.7 0.4 6.3 0.3 6.3-0.2q-0.3-0.9-0.6-1.8-0.3-0.9-0.6-1.8-0.4-0.8-0.8-1.7-0.3-0.9-0.7-1.7c-6.2-13.8-21.2-51.5-21.2-53 0-0.9 2.6-6.1 6-11.6 3.4-5.5 8.1-13.6 10.5-17.6 2.4-4.1 4.6-7.5 5.1-7.5 0.4 0 4.3 6.2 8.8 13.7l8.1 13.6-2.7 3.7c-4.6 7-6.3 14.1-6.2 27.1 0 16 2.7 25.1 9.3 31.8 4.7 4.8 6.2 5.2 15.5 4.6 4.7-0.2 10.7-6.8 13-14.3 2.6-8.4 2.6-13.8 0-26-1.9-9.6-5.6-18.5-9.4-22.6-2-2.1-1.9-2.3 9.5-21.3 6.4-10.5 13.6-22.5 16.2-26.7 2.6-4.3 5.1-7.3 5.5-6.8zm-0.6 35.7c-0.6 0-2.5 1.9-4 4.3-2.4 3.5-3.5 7.5-5.9 22-1.6 9.8-3 19.2-3 21.1 0 2.5 1.4 5 5.9 10.1 3.1 3.7 6.2 6.8 6.9 6.8 0.7 0 3.9-3.1 7.3-6.8 4.1-4.8 5.9-7.7 5.9-9.7 0-1.6-1.4-11.2-3.1-21.3-2.6-15.5-3.5-18.9-6-22.4-1.5-2.3-3.5-4.1-4-4.1zm-78.2 15.9c0 6.3 3.5 10 9.3 10 2.1 0 4.1-0.6 5.8-1.7 1.8-1.1 3.1-2.8 3.9-4.7 0.8-1.9 1-4 0.6-6-0.4-2.1-1.5-3.9-2.9-5.4-6.8-6.7-16.7-2-16.7 7.8zm137.3-1.3c-0.5 4 0 5.2 2.2 8 2.3 2.8 3.6 3.3 7.2 3.3 7.2 0 11-5.2 9.5-13q-0.2-0.8-0.5-1.6-0.3-0.8-0.7-1.5-0.5-0.7-1-1.4-0.5-0.6-1.2-1.2c-6.3-4.9-14.6-1-15.6 7.4zm-52.6 57.1q-0.6-0.6-1.1-1.1-0.6-0.6-1.2-1.1-0.6-0.5-1.2-1l-3-2-4.2 3.5c-3.8 3.3-4.3 4.3-6.5 13.7-1.2 5.6-2.4 10.6-2.5 11.1-0.2 1.2 11 8.9 13.1 8.9 2.5 0 13.3-7.3 13.3-9 0-3-4.4-19.7-5.7-21.8q-0.5-0.6-1-1.2zm-61 7.9q-0.6-0.4-1.2-0.7-0.7-0.3-1.3-0.6-0.7-0.3-1.3-0.5c-0.5 0-2.1 1.7-3.3 3.8-2.2 3.4-2.5 5.4-2.5 14.4v10.2l6.5 2 6.6 2 4.6-4.5c2.5-2.5 4.6-5.3 4.6-6.3 0-1.1-1.7-5.2-3.8-9.2-2.7-5.2-4.8-8.1-7.7-9.8q-0.6-0.4-1.2-0.8zm108.5 0.5c-3.6 2.2-11.8 15.6-11.8 19.2 0 1 2.1 3.9 4.6 6.4l4.6 4.5 5.5-1.7c8.8-2.6 8.6-2.3 7.9-13-0.5-7-1.2-10.5-3-13.6-2.7-4.6-3.2-4.7-7.8-1.8z"/>
		<path id="Layer" class="s1" d="m247.3 119.7c-1.3 3.3-6.3 32.4-6.3 36.5 0.1 2.9 7.5 12.1 9.1 11.4 0.4-0.1 2.7-2.4 4.9-4.8l4-4.6-2.9-18.2c-3.5-21.7-5.9-27.3-8.8-20.3z"/>
		<path id="Layer" class="s1" d="m176.5 120c-3.7 3.7-3.5 7.4 0.8 11.1 3.2 2.9 4.5 3 8.1 0.2 4.8-3.8 2.9-12.1-3.4-13.9-1.7-0.5-3.1 0.1-5.5 2.6z"/>
		<path id="Layer" class="s1" d="m314.4 119.1c-1 0.7-1.7 1.7-2.2 2.7-0.5 1.1-0.8 2.2-0.8 3.4 0 1.2 0.2 2.3 0.7 3.4 0.5 1.1 1.2 2 2.2 2.7 1.5 1.3 3.3 2.2 4 2.2 0.7 0 2.5-0.9 4-2.2 4.8-3.7 2.9-12.1-3.1-13.8-1.3-0.4-3.1 0.1-4.8 1.6z"/>
		<path id="Layer" class="s1" d="m246.9 184.1c-1.4 1.6-6 15.7-5.9 18.4 0.1 0.6 1.7 2.1 3.8 3.5 4.3 2.7 6.7 2.5 11-1l2.9-2.4-2.6-8.8c-2.2-7.7-4.5-11.5-6.8-11.5q-0.4 0.2-0.7 0.4-0.3 0.1-0.6 0.4-0.3 0.2-0.6 0.4-0.3 0.3-0.5 0.6z"/>
		<path id="Layer" class="s1" d="m190.3 194.4c-1.3 2.6-2.5 16.1-1.4 17.7 0.8 1.2 5.7 3.4 7.8 3.4 0.7 0 2.5-1.6 4.1-3.6l2.9-3.7-3.2-6.1c-2.7-5.5-6.3-9.4-8.5-9.4-0.4 0-1.1 0.8-1.7 1.7z"/>
		<path id="Layer" class="s1" d="m304.5 193.4c-0.7 0.3-2.9 3.7-5 7.7-3.7 7.6-3.7 8.9 0.4 12.6 1.8 1.7 2.7 1.8 6.3 0.8l4.3-1.2v-8.3c0-10.8-1.3-13.5-6-11.6z"/>
		<path id="Layer" class="s1" d="m206 148.6q-1.2 0.8-2 2-0.7 1.2-0.9 2.6-0.2 1.5 0.1 2.9 0.4 1.4 1.4 2.5 0.4 0.5 0.7 1.1 0.4 0.6 0.7 1.2 0.2 0.6 0.4 1.2 0.2 0.7 0.3 1.3c0 2-5.1 9.8-7.1 11.1-2.1 1.4-1.2 4.5 2.9 8.5 7.8 8.1 16.7 5.9 21.5-5.4l1.6-4-5.8-5.1c-5.5-4.7-7.1-8.1-4.8-9.5 1.9-1.2 1.2-7.7-1-9.9-2.5-2.5-5-2.6-8-0.5z"/>
		<path id="Layer" class="s1" d="m285.1 149.6c-3.1 3-3.2 4.9-0.8 8.9 2.1 3.8 1.4 5.2-5 10.2-5.4 4-5.9 5.1-3.5 9.7 5.6 11.2 15.6 12.8 22.7 3.7 3.4-4.6 3.4-5.5-0.6-10q-0.6-0.8-1.3-1.6-0.6-0.8-1.2-1.7-0.6-0.8-1.1-1.7-0.5-0.9-0.9-1.9c-1.3-2.9-1.2-3.4 1.2-6.2 2.9-3.5 2.6-7.2-0.9-10.3-2.9-2.4-5.7-2.1-8.6 0.9z"/>
		<path id="Layer" class="s1" d="m160 187.5q-0.4 0.4-0.7 0.9-0.4 0.5-0.6 1-0.3 0.5-0.5 1.1-0.1 0.6-0.2 1.1c0 2.6 3.5 6.3 6 6.3 2.5 0 5.4-3.1 5.4-5.6 0-1.9-4.5-6.9-6.2-6.9q-0.5 0.2-0.9 0.4-0.4 0.2-0.8 0.4-0.5 0.3-0.8 0.6-0.4 0.3-0.7 0.7z"/>
		<path id="Layer" class="s1" d="m333.9 186.7c-1.2 0.6-2.2 1.1-2.3 1.2q-0.1 0.4-0.3 0.7-0.1 0.4-0.2 0.7-0.1 0.4-0.2 0.8-0.1 0.3-0.1 0.7c-0.9 3.2 2.2 7 5.7 7 3.1 0 5.7-4.7 4.3-7.8-1.5-3.3-4.3-4.7-6.9-3.3z"/>
		<path id="Layer" class="s1" d="m145.5 245.9c0 0.7 19.9 8.6 28.6 11.2q4.7 1.4 9.6 2.7 4.8 1.3 9.7 2.4 4.9 1.1 9.8 2.1 4.9 0.9 9.8 1.8c16.8 2.5 57.9 2.5 74.2 0q7.4-1.3 14.7-2.9 7.3-1.6 14.5-3.6 7.2-2 14.3-4.4 7.1-2.4 14.1-5.1c13.7-5.6 13.4-5.7-6.8-1-11.9 2.8-41.9 7.3-42.8 6.4-0.7-0.8-0.6-0.9 7.9-4.7 4.1-1.9 7.3-3.6 7.1-3.9-0.2-0.2-4.7 0.9-10.1 2.3-29.4 7.7-74.2 7.6-102.4-0.3-5.9-1.6-10.7-2.8-10.7-2.6 0 0.2 4.3 2.3 9.6 4.8 5.2 2.5 8.8 4.5 7.8 4.7-4.5 0.8-41.2-5.4-56.5-9.8-1.3-0.3-2.4-0.4-2.4-0.1z"/>
		<path id="Layer" class="s1" d="m147.1 312.2c-8.5 1.3-10.9 5.8-10.9 21.1 0 8.3 2.6 15.1 6.3 17.2 2.8 1.5 17.3 1.6 18.8 0.1q0.2-0.4 0.4-0.8 0.1-0.4 0.2-0.8 0.1-0.5 0.1-0.9 0-0.5-0.1-0.9c-0.3-2.2-0.7-2.3-7-2.1-9.8 0.3-11-1.1-10.8-13.7 0.1-8.5 0.4-9.5 2.5-11.4 1.9-1.5 3.8-1.9 8.8-1.5 6.1 0.3 6.2 0.2 6.5-2.5 0.3-2.3-0.1-2.9-2.1-3.4q-1.5-0.4-3.1-0.6-1.6-0.2-3.2-0.3-1.6 0-3.2 0.1-1.6 0.1-3.2 0.4z"/>
		<path id="Layer" fill-rule="evenodd" class="s1" d="m193.6 314.5c4.2 2.7 6.2 9.7 5.7 19.7-0.8 13.1-4.6 17.6-15.2 17.6-11 0-15.4-4.4-16.5-16.3-1.2-12.8 3-21.7 10.8-23 2.2-0.4 4.5-0.8 5-0.9 1.8-0.5 7.8 1.1 10.2 2.9zm-4.6 5.7q-1.2-1-2.7-1.6-1.5-0.5-3-0.4-1.6 0.1-3 0.8-1.5 0.7-2.5 1.9c-1.8 2.3-2.2 4.3-2.2 11.3 0 10.8 1.4 13 7.7 13 2.9 0 5-0.6 6-1.8 3.7-4.1 3.4-19.4-0.3-23.2z"/>
		<path id="Layer" fill-rule="evenodd" class="s1" d="m322.4 319.8c1.6 3.1 2.1 6.2 2 12.5-0.1 14.4-4.4 19.6-16.4 19.5-10.8-0.1-15.3-6-15.3-19.9 0-12.4 3.1-17.8 11.2-19.8 8-1.8 15.2 1.2 18.5 7.7zm-19.1 0.4c-2.5 2.6-3.6 8-3 15.2 0.7 7.1 2.8 9.8 8.2 9.8 6.8 0 8.8-3.6 8-15.4-0.2-5.2-0.9-7.8-2.2-9.4-2.6-2.8-8.4-2.8-11-0.2z"/>
		<path id="Layer" class="s1" d="m109.6 313.1c-3.5 1.3-5.6 5.1-5.6 10.1 0 5.5 3.2 8.8 10.7 11.1 6.3 1.9 8 3.2 8 6.3 0 3.7-2.4 4.8-9.6 4.6-9-0.3-9.1-0.3-9.1 2.5 0 3 2.1 3.8 12 3.8 6.9 0 7.8-0.4 10.7-3 2.9-2.7 3.2-3.8 3.2-8.1 0-2.8-0.6-6-1.2-6.9-0.6-0.9-4.6-3.1-8.5-4.7-8-3.2-10.1-5.3-8.3-8.3 0.9-1.4 2.7-1.7 9-1.7 7 0 8-0.2 8.4-2.1q0.1-0.5 0.1-0.9 0-0.5-0.2-1-0.1-0.4-0.4-0.8-0.3-0.4-0.7-0.7c-1.9-1.5-15.1-1.7-18.5-0.2z"/>
		<path id="Layer" fill-rule="evenodd" class="s1" d="m216.5 312c11.4 0.1 16.6 2.4 18.4 8.1 1.4 5.1 0.6 10.5-2.4 14.2l-2.2 2.8 2.3 6.4c1.2 3.5 2.2 6.7 2.2 7.2 0 0.6-1.8 0.8-3.9 0.6-3.7-0.4-3.8-0.5-5.9-6.9-2.1-6.4-2.1-6.4-5.9-6.4h-4l-0.3 6.4-0.3 6.5-3.8 0.4-4 0.3v-19.1c0-10.5 0.4-19.4 0.8-19.7 0.3-0.5 4.4-0.8 9-0.8zm10 7.8c-1.7-1-9.9-1.8-10.7-0.9-0.5 0.4-0.8 3.5-0.8 6.8v6h5.2c4.4 0 5.4-0.4 6.9-2.6 1.7-2.5 1.2-8.2-0.6-9.3z"/>
		<path id="Layer" fill-rule="evenodd" class="s1" d="m252.3 312c14.3 0.1 19.6 4.6 18.6 15.7-0.9 7.8-4.5 11.2-13.4 12.1l-6.7 0.8v10.3l-3.8 0.4-3.9 0.3v-19.1c0-10.5 0.3-19.4 0.7-19.8 0.3-0.4 4.1-0.7 8.5-0.7zm-0.9 6.9c-0.1 0.5-0.2 3.6-0.4 6.9-0.3 4.1 0.1 6.3 1.1 7.1 1.9 1.6 8.8 0.4 10.4-1.9 1.7-2.3 1.7-7.8 0.1-9.9-1.5-1.8-11.2-3.7-11.2-2.2z"/>
		<path id="Layer" class="s1" d="m278 312.6c-0.4 0.5-0.7 9.4-0.7 19.9v19.1l3.9-0.4 3.9-0.3v-38.4l-3.2-0.3c-1.7-0.2-3.5 0-3.9 0.4z"/>
		<path id="Layer" class="s1" d="m332.3 331.7v19.8h7.3v-16.3c0-10.2 0.4-15.9 0.9-15.4 0.5 0.5 2.9 7.5 5.2 15.4 2.3 7.8 4.5 14.7 4.8 15.2 0.3 0.5 3.4 1 6.8 1h6.1l-0.2-19.5-0.3-19.4-3.3-0.3-3.4-0.3v15.5c0 8.6-0.4 15.8-1 16.1-0.5 0.3-2.9-6.5-5.5-15.2l-4.5-15.8-6.5-0.3-6.4-0.3z"/>
		<path id="Layer" class="s1" d="m376.3 313.1c-3.5 1.3-5.6 5.1-5.6 10.1 0 5.7 2.7 8.6 10.5 11.1 6.8 2.3 8.2 3.2 8.2 6.3 0 3.9-2.4 4.8-10.6 4.4-7.6-0.3-7.6-0.3-7.9 2.5-0.3 2.3 0.2 2.8 2.6 3.3 9.8 2.2 19.6 0.1 22.1-4.4 1.5-2.8 1.4-10.8-0.2-12.9-0.7-1-4.6-3.1-8.5-4.7-8-3.2-10.1-5.4-8.3-8.3 0.9-1.3 2.7-1.7 8.7-1.8 6.9 0 7.7-0.3 8.4-2.3 0.6-1.7 0.4-2.5-1.1-3.3-2.4-1.3-15.2-1.3-18.3 0z"/>
		<path id="Layer" class="s1" d="m160.8 387.4c-0.5 0.4-0.8 9.3-0.8 19.8v19h21.9l-0.3-3.4c-0.3-3.4-0.4-3.4-6-3.6-3.1-0.1-6.3-0.2-7-0.2-0.9-0.1-1.3-4.3-1.5-16l-0.3-15.8-2.6-0.3c-1.5-0.2-3 0.1-3.4 0.5z"/>
		<path id="Layer" class="s1" d="m187.8 387.5c-0.5 0.3-0.8 9.2-0.8 19.7v19.1l12.8-0.3 12.6-0.3v-6.2l-8.3-0.1h-8.3l-0.6-4.2c-0.4-2.2-0.5-4.4-0.2-4.9 0.3-0.5 3.4-0.7 7.2-0.7h6.6v-6.2h-13.3l-0.5-4c-0.2-2.1-0.1-4.3 0.4-4.8 0.5-0.5 4.5-0.9 8.9-1l8.1-0.1v-6.2l-12-0.3c-6.5-0.2-12.2 0.1-12.7 0.5z"/>
		<path id="Layer" class="s1" d="m225.5 388.1c-5.1 2.6-6.7 6.2-7.1 16.3-0.3 7.2 0 10.5 1.3 14.1 2.5 6.5 6 8.2 16.9 8.1 4.8-0.1 9.2-0.6 9.7-1.2 0.5-0.5 0.9-5.1 0.7-10.2l-0.3-9.3h-5.2c-4.2 0-5.2 0.3-5.5 1.9q0 0.6 0.1 1.1 0.1 0.6 0.4 1.1 0.2 0.5 0.5 0.9 0.3 0.5 0.8 0.8 0.5 0.6 0.9 1.2 0.3 0.5 0.6 1.2 0.3 0.6 0.5 1.3 0.1 0.7 0.1 1.4c0 3-0.1 3.1-5 3.1-3.5 0-5.6-0.5-6.6-1.8-3.7-4.2-3.4-19.4 0.4-23.3 1.8-1.7 3.2-2 10-1.6 7.9 0.3 8 0.3 8-2.3 0-1.8-0.7-2.7-2.6-3.2-4.4-1.3-16-1-18.6 0.4z"/>
		<path id="Layer" class="s1" d="m256.2 387.5c-0.3 0.4-0.6 9.2-0.8 19.5l-0.4 18.7 3.9 0.3 3.9 0.3-0.2-19.5-0.3-19.5-2.8-0.3c-1.5-0.3-2.9 0-3.3 0.5z"/>
		<path id="Layer" fill-rule="evenodd" class="s1" d="m294.3 388.3c5.7 2.7 7.4 6.9 7.4 18.2 0 10.9-1.2 14.5-6 18-2.3 1.7-4.4 2.2-9.6 2.1-10.7-0.1-14.9-4.5-15.9-16.6-0.8-11.2 2.8-20.3 9.2-22.5 3.2-1.2 11.7-0.7 14.9 0.8zm-4.9 5.1q-0.6-0.1-1.1-0.3-0.5-0.1-1.1-0.1-0.5 0-1.1 0c-6 0-7.7 3.2-7.7 14.2 0 10.3 1.4 12.7 7.3 12.7 6.5 0 8.2-2.4 8.2-12.5 0-8-1-11.9-3.5-13.6q-0.5-0.2-1-0.4z"/>
		<path id="Layer" class="s1" d="m309.9 388.1c-0.2 0.7-0.3 9.4-0.2 19.4l0.3 18.2h7.3l0.5-15.6c0.3-8.6 0.8-15 1.2-14.5q0.4 0.9 0.7 1.8 0.3 0.9 0.6 1.8 0.3 0.9 0.5 1.8 0.3 0.9 0.5 1.8c0.9 3.5 2.8 10 4.2 14.6l2.5 8.3 6.3 0.3 6.3 0.3v-39.7l-3.3 0.3-3.4 0.4-0.5 16c-0.7 18.4-0.8 18.4-6.3-1-4.5-16.1-4.1-15.5-11-15.5-3.6-0.1-5.8 0.5-6.2 1.3z"/>
	</g>
</svg>