<?xml version="1.0" encoding="utf-8"?>
<!-- Generator: Adobe Illustrator 26.3.1, SVG Export Plug-In . SVG Version: 6.00 Build 0)  -->
<svg version="1.1" id="Layer_1" xmlns="http://www.w3.org/2000/svg" xmlns:xlink="http://www.w3.org/1999/xlink" x="0px" y="0px"
	 viewBox="0 0 32 32" style="enable-background:new 0 0 32 32;" xml:space="preserve">
<style type="text/css">
	.st0{fill-rule:evenodd;clip-rule:evenodd;fill:#FF3131;}
	.st1{fill:#FF3131;}
</style>
<g id="Folder_1">
	<path id="Layer_1_00000050622880255214242800000000841572942168144057_" d="M0,0h32v32H0V0z"/>
	<path id="Layer" class="st0" d="M16,4.7c0.1,0.1,2,3.3,2,3.3c0,0-0.1,0.2-0.2,0.3c-0.4,0.6-0.7,2-0.6,2.8c0.2,0.8,0.5,1.1,1.1,1.1
		c0.4,0,0.7-0.2,1-0.6c0.6-1,0.5-2.8-0.1-3.6c-0.1-0.1,0-0.3,0.4-1c0.3-0.5,0.5-0.9,0.6-0.9c0.1,0,1.4,2.2,1.4,2.3
		c0,0-0.3,0.9-0.8,1.9s-0.8,1.9-0.8,1.9c0,0,0.1,0,0.3,0c0.3-0.1,0.3,0,0.5,0.2c0.2,0.2,0.2,0.2,0.4,0.2c0.3,0,0.5-0.1,0.6-0.3
		c0.1-0.2,0.1-0.5-0.2-0.7l-0.2-0.2l0.2-1c0.3-1.2,0.3-1.2,0.4-0.8c0.1,0.5,0.4,1.1,0.7,1.4c0.1,0.1,0.3,0.3,0.3,0.3
		c0,0,0,0.1,0,0.1c0,0,0,0.1-0.1,0.1c0,0,0,0.1-0.1,0.1c0,0,0,0.1-0.1,0.1c-0.1,0.2-0.4,0.6-0.6,0.9c-0.2,0.3-0.4,0.6-0.4,0.6
		c0,0-0.4,0-0.8-0.1c-0.4-0.1-0.8-0.1-0.9-0.1c-0.1,0,1,0.7,1.7,1c0.6,0.3,1.4,0.7,1.4,0.8c0,0-0.2,0-0.4-0.1
		c-0.6-0.2-2-0.5-3.1-0.7c-0.8-0.1-1.5-0.1-3.4-0.2c-2.2,0-2.4,0-3.8,0.1c-1.5,0.2-3.2,0.5-3.8,0.7c-0.6,0.2-0.3,0,0.7-0.5
		c1.2-0.6,2.2-1.2,2.1-1.2c0,0-0.4,0-0.9,0.1c-0.6,0.1-0.8,0.1-0.9,0c-0.1-0.1-1.2-1.7-1.2-1.8c0,0,0.1-0.2,0.3-0.3
		c0.1-0.1,0.2-0.2,0.2-0.3c0.1-0.1,0.1-0.2,0.2-0.3c0.1-0.1,0.1-0.2,0.1-0.4c0-0.1,0.1-0.2,0.1-0.4c0-0.2,0-0.3,0.1-0.3
		c0,0,0.1,0.5,0.3,1l0.3,1l-0.2,0.2C9.9,12,9.9,12.3,10,12.5c0.1,0.2,0.2,0.3,0.5,0.3c0.2,0,0.5-0.2,0.5-0.4c0-0.1,0.1-0.1,0.4,0
		c0.2,0,0.4,0,0.4,0c0,0,0-0.1,0-0.1c0,0,0-0.1,0-0.1c0,0,0-0.1-0.1-0.1c0,0,0-0.1,0-0.1c-0.4-0.9-1.4-3.3-1.4-3.4
		c0-0.1,0.2-0.4,0.4-0.7c0.2-0.4,0.5-0.9,0.7-1.1c0.2-0.3,0.3-0.5,0.3-0.5c0,0,0.3,0.4,0.6,0.9L12.8,8l-0.2,0.2
		c-0.3,0.4-0.4,0.9-0.4,1.7c0,1,0.2,1.6,0.6,2c0.3,0.3,0.4,0.3,1,0.3c0.3,0,0.7-0.4,0.8-0.9c0.2-0.5,0.2-0.9,0-1.7
		c-0.1-0.6-0.4-1.2-0.6-1.4c-0.1-0.1-0.1-0.1,0.6-1.4c0.4-0.7,0.9-1.4,1-1.7C15.8,4.9,16,4.7,16,4.7z M16,7c0,0-0.2,0.1-0.3,0.3
		c-0.2,0.2-0.2,0.5-0.4,1.4c-0.1,0.6-0.2,1.2-0.2,1.4c0,0.2,0.1,0.3,0.4,0.6c0.2,0.2,0.4,0.4,0.4,0.4c0,0,0.2-0.2,0.5-0.4
		c0.3-0.3,0.4-0.5,0.4-0.6c0-0.1-0.1-0.7-0.2-1.4c-0.2-1-0.2-1.2-0.4-1.4C16.1,7.1,16,7,16,7z M11,8c0,0.4,0.2,0.6,0.6,0.6
		c0.1,0,0.3,0,0.4-0.1c0.1-0.1,0.2-0.2,0.2-0.3c0.1-0.1,0.1-0.3,0-0.4c0-0.1-0.1-0.2-0.2-0.3C11.6,7.1,11,7.4,11,8z M19.8,8
		c0,0.3,0,0.3,0.1,0.5c0.1,0.2,0.2,0.2,0.5,0.2c0.5,0,0.7-0.3,0.6-0.8c0,0,0-0.1,0-0.1c0,0,0-0.1,0-0.1c0,0,0-0.1-0.1-0.1
		c0,0,0-0.1-0.1-0.1C20.4,7.2,19.8,7.4,19.8,8L19.8,8z M16.4,11.6C16.4,11.6,16.3,11.6,16.4,11.6c-0.1-0.1-0.1-0.1-0.1-0.1
		s-0.1,0-0.1-0.1L16,11.3l-0.3,0.2c-0.2,0.2-0.3,0.3-0.4,0.9c-0.1,0.4-0.2,0.7-0.2,0.7c0,0.1,0.7,0.6,0.8,0.6c0.2,0,0.9-0.5,0.9-0.6
		C16.8,12.9,16.5,11.8,16.4,11.6C16.4,11.7,16.4,11.6,16.4,11.6z M12.5,12.1C12.5,12.1,12.4,12.1,12.5,12.1
		c-0.1-0.1-0.1-0.1-0.2-0.1c0,0-0.1,0-0.1,0c0,0-0.1,0.1-0.2,0.2c-0.1,0.2-0.2,0.3-0.2,0.9v0.7l0.4,0.1l0.4,0.1l0.3-0.3
		c0.2-0.2,0.3-0.3,0.3-0.4c0-0.1-0.1-0.3-0.2-0.6C12.9,12.5,12.8,12.3,12.5,12.1C12.5,12.1,12.5,12.1,12.5,12.1z M19.4,12.1
		c-0.2,0.1-0.8,1-0.8,1.2c0,0.1,0.1,0.2,0.3,0.4l0.3,0.3l0.4-0.1c0.6-0.2,0.6-0.1,0.5-0.8c0-0.4-0.1-0.7-0.2-0.9
		C19.8,12,19.7,12,19.4,12.1z"/>
	<path id="Layer_00000150100911502606912490000007952490919759338916_" class="st1" d="M15.8,7.7c-0.1,0.2-0.4,2.1-0.4,2.3
		c0,0.2,0.5,0.8,0.6,0.7c0,0,0.2-0.2,0.3-0.3l0.3-0.3L16.4,9C16.2,7.6,16,7.2,15.8,7.7z"/>
	<path id="Layer_00000145023655344274757350000004351572763283403408_" class="st1" d="M11.3,7.7c-0.2,0.2-0.2,0.5,0.1,0.7
		c0.2,0.2,0.3,0.2,0.5,0c0.3-0.2,0.2-0.8-0.2-0.9C11.5,7.5,11.4,7.5,11.3,7.7z"/>
	<path id="Layer_00000007418640209161622550000005931012132232888230_" class="st1" d="M20.1,7.6c-0.1,0-0.1,0.1-0.1,0.2
		c0,0.1-0.1,0.1-0.1,0.2c0,0.1,0,0.1,0,0.2c0,0.1,0.1,0.1,0.1,0.2c0.1,0.1,0.2,0.1,0.3,0.1c0,0,0.2-0.1,0.3-0.1
		c0.3-0.2,0.2-0.8-0.2-0.9C20.3,7.5,20.2,7.5,20.1,7.6z"/>
	<path id="Layer_00000154396009443538152170000001715583463167237280_" class="st1" d="M15.8,11.8c-0.1,0.1-0.4,1-0.4,1.2
		c0,0,0.1,0.1,0.2,0.2c0.3,0.2,0.4,0.2,0.7-0.1l0.2-0.2l-0.2-0.6c-0.1-0.5-0.3-0.7-0.4-0.7c0,0,0,0,0,0
		C15.9,11.7,15.9,11.7,15.8,11.8C15.9,11.7,15.8,11.7,15.8,11.8C15.8,11.8,15.8,11.8,15.8,11.8z"/>
	<path id="Layer_00000178902974646741176350000001338387103922576269_" class="st1" d="M12.2,12.4c-0.1,0.2-0.2,1-0.1,1.1
		c0.1,0.1,0.4,0.2,0.5,0.2c0,0,0.2-0.1,0.3-0.2l0.2-0.2l-0.2-0.4c-0.2-0.4-0.4-0.6-0.5-0.6C12.3,12.3,12.2,12.4,12.2,12.4z"/>
	<path id="Layer_00000111155298562221083200000006318600800107336077_" class="st1" d="M19.5,12.4c0,0-0.2,0.2-0.3,0.5
		c-0.2,0.5-0.2,0.6,0,0.8c0.1,0.1,0.2,0.1,0.4,0.1l0.3-0.1v-0.5C19.9,12.4,19.8,12.3,19.5,12.4z"/>
	<path id="Layer_00000085250379296198797630000006689295063101622418_" class="st1" d="M13.2,9.5c-0.1,0-0.1,0.1-0.1,0.1
		c0,0.1,0,0.1-0.1,0.2c0,0.1,0,0.1,0,0.2c0,0.1,0,0.1,0.1,0.2c0,0,0,0,0,0.1c0,0,0,0.1,0,0.1c0,0,0,0.1,0,0.1c0,0,0,0.1,0,0.1
		c0,0.1-0.3,0.6-0.5,0.7c-0.1,0.1-0.1,0.3,0.2,0.5c0.5,0.5,1.1,0.4,1.4-0.3l0.1-0.3l-0.4-0.3c-0.4-0.3-0.5-0.5-0.3-0.6
		c0.1-0.1,0.1-0.5-0.1-0.6C13.5,9.4,13.4,9.4,13.2,9.5z"/>
	<path id="Layer_00000139292893373508028780000004949414609994671015_" class="st1" d="M18.2,9.6C18,9.8,18,9.9,18.2,10.1
		c0.1,0.2,0.1,0.3-0.3,0.7c-0.3,0.3-0.4,0.3-0.2,0.6c0.4,0.7,1,0.8,1.5,0.2c0.2-0.3,0.2-0.4,0-0.6c0,0-0.1-0.1-0.1-0.1
		c0,0-0.1-0.1-0.1-0.1c0,0,0-0.1-0.1-0.1c0,0,0-0.1-0.1-0.1c-0.1-0.2-0.1-0.2,0.1-0.4C19,10,19,9.7,18.8,9.5
		C18.6,9.4,18.4,9.4,18.2,9.6z"/>
	<path id="Layer_00000000902790231158224930000002732106974862324896_" class="st1" d="M10.2,12C10.2,12,10.2,12,10.2,12
		c-0.1,0.1-0.1,0.1-0.1,0.1c0,0,0,0,0,0.1c0,0,0,0,0,0.1c0,0.2,0.2,0.4,0.4,0.4s0.3-0.2,0.3-0.4c0-0.1-0.3-0.4-0.4-0.4
		c0,0,0,0-0.1,0C10.4,11.9,10.4,11.9,10.2,12C10.3,11.9,10.3,11.9,10.2,12C10.3,12,10.3,12,10.2,12z"/>
	<path id="Layer_00000039854983881190368610000016839287930648848012_" class="st1" d="M21.4,11.9c-0.1,0-0.1,0.1-0.1,0.1
		c0,0,0,0,0,0c0,0,0,0,0,0c0,0,0,0,0,0.1c0,0,0,0,0,0c-0.1,0.2,0.1,0.4,0.4,0.4c0.2,0,0.4-0.3,0.3-0.5
		C21.7,11.9,21.5,11.9,21.4,11.9z"/>
	<path id="Layer_00000177451326055456155840000003958841852673258637_" class="st1" d="M9.3,15.7c0,0,1.3,0.6,1.8,0.7
		c0.2,0.1,0.4,0.1,0.6,0.2c0.2,0.1,0.4,0.1,0.6,0.2s0.4,0.1,0.6,0.1c0.2,0,0.4,0.1,0.6,0.1c1.1,0.2,3.7,0.2,4.7,0
		c0.3-0.1,0.6-0.1,0.9-0.2c0.3-0.1,0.6-0.1,0.9-0.2c0.3-0.1,0.6-0.2,0.9-0.3s0.6-0.2,0.9-0.3c0.9-0.4,0.9-0.4-0.4-0.1
		c-0.8,0.2-2.7,0.5-2.7,0.4c0-0.1,0-0.1,0.5-0.3c0.3-0.1,0.5-0.2,0.5-0.2c0,0-0.3,0.1-0.6,0.1c-1.9,0.5-4.7,0.5-6.6,0
		c-0.4-0.1-0.7-0.2-0.7-0.2c0,0,0.3,0.1,0.6,0.3c0.3,0.2,0.6,0.3,0.5,0.3c-0.3,0.1-2.6-0.3-3.6-0.6C9.4,15.7,9.3,15.7,9.3,15.7z"/>
	<path id="Layer_00000127740628587502113300000002921377473542547129_" class="st1" d="M9.4,20c-0.5,0.1-0.7,0.4-0.7,1.4
		c0,0.5,0.2,1,0.4,1.1c0.2,0.1,1.1,0.1,1.2,0c0,0,0,0,0-0.1c0,0,0,0,0-0.1c0,0,0,0,0-0.1c0,0,0,0,0-0.1c0-0.1,0-0.1-0.4-0.1
		c-0.6,0-0.7-0.1-0.7-0.9c0-0.5,0-0.6,0.2-0.7c0.1-0.1,0.2-0.1,0.6-0.1c0.4,0,0.4,0,0.4-0.2c0-0.1,0-0.2-0.1-0.2c-0.1,0-0.1,0-0.2,0
		s-0.1,0-0.2,0c-0.1,0-0.1,0-0.2,0C9.6,20,9.5,20,9.4,20z"/>
	<path id="Layer_00000015352029947692258360000016459107289563053188_" class="st0" d="M12.4,20.1c0.3,0.2,0.4,0.6,0.4,1.3
		c-0.1,0.8-0.3,1.1-1,1.1c-0.7,0-1-0.3-1.1-1c-0.1-0.8,0.2-1.4,0.7-1.5c0.1,0,0.3-0.1,0.3-0.1C11.9,19.9,12.2,20,12.4,20.1z
		 M12.1,20.5c-0.1,0-0.1-0.1-0.2-0.1c-0.1,0-0.1,0-0.2,0c-0.1,0-0.1,0-0.2,0.1c-0.1,0-0.1,0.1-0.2,0.1c-0.1,0.1-0.1,0.3-0.1,0.7
		c0,0.7,0.1,0.8,0.5,0.8c0.2,0,0.3,0,0.4-0.1C12.4,21.7,12.3,20.7,12.1,20.5z"/>
	<path id="Layer_00000154395276528214866520000015719635554817089448_" class="st0" d="M20.6,20.5c0.1,0.2,0.1,0.4,0.1,0.8
		c0,0.9-0.3,1.3-1,1.2c-0.7,0-1-0.4-1-1.3c0-0.8,0.2-1.1,0.7-1.3C20,19.9,20.4,20.1,20.6,20.5z M19.4,20.5c-0.2,0.2-0.2,0.5-0.2,1
		c0,0.5,0.2,0.6,0.5,0.6c0.4,0,0.6-0.2,0.5-1c0-0.3-0.1-0.5-0.1-0.6C19.9,20.3,19.6,20.3,19.4,20.5z"/>
	<path id="Layer_00000133492355751843954240000012849975968854342297_" class="st1" d="M7,20c-0.2,0.1-0.4,0.3-0.4,0.6
		c0,0.4,0.2,0.6,0.7,0.7c0.4,0.1,0.5,0.2,0.5,0.4c0,0.2-0.2,0.3-0.6,0.3c-0.6,0-0.6,0-0.6,0.2c0,0.2,0.1,0.2,0.8,0.2
		c0.4,0,0.5,0,0.7-0.2c0.2-0.2,0.2-0.2,0.2-0.5c0-0.2,0-0.4-0.1-0.4c0-0.1-0.3-0.2-0.5-0.3c-0.5-0.2-0.6-0.3-0.5-0.5
		c0.1-0.1,0.2-0.1,0.6-0.1c0.4,0,0.5,0,0.5-0.1c0,0,0,0,0-0.1c0,0,0,0,0-0.1c0,0,0,0,0-0.1s0,0,0,0C8.1,20,7.2,19.9,7,20z"/>
	<path id="Layer_00000163755339830077350180000014886206513851859636_" class="st0" d="M13.9,20c0.7,0,1.1,0.2,1.2,0.5
		c0.1,0.3,0,0.7-0.2,0.9l-0.1,0.2l0.1,0.4c0.1,0.2,0.1,0.4,0.1,0.5c0,0-0.1,0.1-0.2,0c-0.2,0-0.2,0-0.4-0.4
		c-0.1-0.4-0.1-0.4-0.4-0.4h-0.3l0,0.4l0,0.4l-0.2,0l-0.3,0v-1.2c0-0.7,0-1.2,0.1-1.3C13.3,20,13.6,20,13.9,20z M14.5,20.5
		c-0.1-0.1-0.6-0.1-0.7-0.1c0,0-0.1,0.2-0.1,0.4v0.4h0.3c0.3,0,0.3,0,0.4-0.2C14.6,20.9,14.6,20.5,14.5,20.5z"/>
	<path id="Layer_00000078760721286822225170000014427666747205806210_" class="st0" d="M16.1,20c0.9,0,1.3,0.3,1.2,1
		c-0.1,0.5-0.3,0.7-0.9,0.8l-0.4,0.1v0.7l-0.2,0l-0.2,0v-1.2c0-0.7,0-1.2,0-1.3C15.6,20,15.9,20,16.1,20z M16.1,20.4
		c0,0,0,0.2,0,0.4c0,0.3,0,0.4,0.1,0.5c0.1,0.1,0.6,0,0.7-0.1c0.1-0.1,0.1-0.5,0-0.6C16.7,20.4,16.1,20.3,16.1,20.4z"/>
	<path id="Layer_00000002350870769881873120000002935257654441234320_" class="st1" d="M17.8,20c0,0,0,0.6,0,1.3v1.2l0.2,0l0.2,0V20
		L18,20C17.9,20,17.8,20,17.8,20z"/>
	<path id="Layer_00000123437848918513401760000002818847609758893967_" class="st1" d="M21.3,21.2v1.3h0.5v-1c0-0.7,0-1,0.1-1
		c0,0,0.2,0.5,0.3,1c0.1,0.5,0.3,0.9,0.3,1c0,0,0.2,0.1,0.4,0.1h0.4l0-1.2l0-1.2L23,20l-0.2,0v1c0,0.6,0,1-0.1,1c0,0-0.2-0.4-0.4-1
		l-0.3-1l-0.4,0l-0.4,0V21.2z"/>
	<path id="Layer_00000029730738440283866530000017647563721670354568_" class="st1" d="M24.1,20c-0.2,0.1-0.4,0.3-0.4,0.6
		c0,0.4,0.2,0.6,0.7,0.7c0.4,0.1,0.5,0.2,0.5,0.4c0,0.2-0.2,0.3-0.7,0.3c-0.5,0-0.5,0-0.5,0.2c0,0.1,0,0.2,0.2,0.2
		c0.6,0.1,1.3,0,1.4-0.3c0.1-0.2,0.1-0.7,0-0.8c0-0.1-0.3-0.2-0.5-0.3c-0.5-0.2-0.6-0.3-0.5-0.5c0.1-0.1,0.2-0.1,0.6-0.1
		c0.4,0,0.5,0,0.5-0.1c0-0.1,0-0.2-0.1-0.2C25.1,20,24.3,20,24.1,20z"/>
	<path id="Layer_00000056417771230571671610000005673677776577278863_" class="st1" d="M10.3,24.8c0,0-0.1,0.6-0.1,1.3v1.2h1.4
		l0-0.2c0-0.2,0-0.2-0.4-0.2c-0.2,0-0.4,0-0.4,0c-0.1,0-0.1-0.3-0.1-1l0-1l-0.2,0C10.4,24.7,10.3,24.8,10.3,24.8z"/>
	<path id="Layer_00000062183819072339319970000016353430319406028172_" class="st1" d="M12,24.8c0,0-0.1,0.6-0.1,1.3v1.2l0.8,0
		l0.8,0v-0.4l-0.5,0h-0.5l0-0.3c0-0.1,0-0.3,0-0.3s0.2,0,0.5,0h0.4v-0.4h-0.9l0-0.3c0-0.1,0-0.3,0-0.3c0,0,0.3-0.1,0.6-0.1l0.5,0
		v-0.4l-0.8,0C12.4,24.8,12,24.8,12,24.8L12,24.8z"/>
	<path id="Layer_00000000204846279147299680000010751905087921428394_" class="st1" d="M14.4,24.8c-0.3,0.2-0.4,0.4-0.5,1
		c0,0.5,0,0.7,0.1,0.9c0.2,0.4,0.4,0.5,1.1,0.5c0.3,0,0.6,0,0.6-0.1c0,0,0.1-0.3,0-0.7l0-0.6h-0.3c-0.3,0-0.3,0-0.4,0.1
		c0,0,0,0,0,0.1c0,0,0,0,0,0.1c0,0,0,0,0,0.1c0,0,0,0,0.1,0.1c0,0,0,0.1,0.1,0.1c0,0,0,0,0,0.1c0,0,0,0.1,0,0.1c0,0,0,0.1,0,0.1
		c0,0.2,0,0.2-0.3,0.2c-0.2,0-0.4,0-0.4-0.1c-0.2-0.3-0.2-1.2,0-1.5c0.1-0.1,0.2-0.1,0.6-0.1c0.5,0,0.5,0,0.5-0.1
		c0-0.1,0-0.2-0.2-0.2C15.3,24.7,14.6,24.7,14.4,24.8z"/>
	<path id="Layer_00000085210712761047536580000012849911918706824580_" class="st1" d="M16.4,24.8c0,0,0,0.6-0.1,1.2l0,1.2l0.2,0
		l0.2,0l0-1.2l0-1.2l-0.2,0C16.5,24.7,16.4,24.8,16.4,24.8z"/>
	<path id="Layer_00000181075695078860810490000001844712770889814456_" class="st0" d="M18.8,24.9c0.4,0.2,0.5,0.4,0.5,1.2
		c0,0.7-0.1,0.9-0.4,1.2c-0.1,0.1-0.3,0.1-0.6,0.1c-0.7,0-1-0.3-1-1.1c-0.1-0.7,0.2-1.3,0.6-1.4C18.1,24.7,18.6,24.8,18.8,24.9z
		 M18.5,25.2C18.5,25.2,18.5,25.2,18.5,25.2c-0.1,0-0.1,0-0.1,0c0,0,0,0-0.1,0c-0.4,0-0.5,0.2-0.5,0.9c0,0.7,0.1,0.8,0.5,0.8
		c0.4,0,0.5-0.2,0.5-0.8C18.8,25.6,18.7,25.3,18.5,25.2C18.6,25.2,18.5,25.2,18.5,25.2z"/>
	<path id="Layer_00000080884753030377945960000004587484888171216814_" class="st1" d="M19.8,24.8c0,0,0,0.6,0,1.2l0,1.2h0.5l0-1
		c0-0.6,0.1-1,0.1-0.9c0,0,0,0.1,0,0.1c0,0,0,0.1,0,0.1c0,0,0,0.1,0,0.1c0,0,0,0.1,0,0.1c0.1,0.2,0.2,0.6,0.3,0.9l0.2,0.5l0.4,0
		l0.4,0v-2.5l-0.2,0l-0.2,0l0,1c0,1.2-0.1,1.2-0.4-0.1c-0.3-1-0.3-1-0.7-1C20,24.7,19.9,24.8,19.8,24.8z"/>
</g>
</svg>
